<?xml version="1.0" encoding="iso-8859-1"?>
<!-- Generator: Adobe Illustrator 19.2.0, SVG Export Plug-In . SVG Version: 6.00 Build 0)  -->
<svg version="1.1" id="Layer_1" xmlns="http://www.w3.org/2000/svg" xmlns:xlink="http://www.w3.org/1999/xlink" x="0px" y="0px"
	 viewBox="0 0 510 340" enable-background="new 0 0 510 340" xml:space="preserve">
<linearGradient id="SVGID_1_" gradientUnits="userSpaceOnUse" x1="254.4173" y1="327.9561" x2="254.4173" y2="3.1786">
	<stop  offset="0" style="stop-color:#29B4EF;stop-opacity:0.3"/>
	<stop  offset="1" style="stop-color:#28B8EF"/>
</linearGradient>
<rect x="10.321" y="3.179" opacity="0.1" fill="url(#SVGID_1_)" width="488.192" height="324.777"/>
<linearGradient id="SVGID_2_" gradientUnits="userSpaceOnUse" x1="254.0134" y1="402.3275" x2="254.0134" y2="146.3274">
	<stop  offset="0" style="stop-color:#29B4EF;stop-opacity:0.1"/>
	<stop  offset="0.5865" style="stop-color:#0EA5EF;stop-opacity:0.5106"/>
	<stop  offset="1" style="stop-color:#009DEF;stop-opacity:0.8"/>
</linearGradient>
<polygon opacity="0.4" fill="url(#SVGID_2_)" points="9.995,269.12 151.789,242.796 203.514,164.161 226.656,73.956 
	290.447,135.226 345.051,222.747 498.513,247.956 498.513,329.956 9.513,329.956 "/>
<linearGradient id="SVGID_3_" gradientUnits="userSpaceOnUse" x1="253.9173" y1="409.2544" x2="253.9173" y2="180.4333">
	<stop  offset="0" style="stop-color:#29B4EF;stop-opacity:0"/>
	<stop  offset="0.557" style="stop-color:#2896EF;stop-opacity:0.2229"/>
	<stop  offset="0.9997" style="stop-color:#2882EF;stop-opacity:0.4"/>
</linearGradient>
<polygon opacity="0.75" fill="url(#SVGID_3_)" points="10.321,163.098 29.241,160.938 43.478,148.395 62.71,153.938 79.707,138.749 
	100.818,145.933 123.63,134.218 147.986,145.019 170.515,133.506 198.514,143.052 229.514,122.957 261.514,138.277 291.513,125.956 
	316.909,137.762 342.148,125.344 365.985,132.952 387.256,117.617 409.078,127.042 431.229,109.246 451.849,120.838 
	497.513,101.135 497.513,329.956 10.513,329.956 "/>
<g>
	<g>
		<defs>
			<rect id="SVGID_4_" x="10.513" y="100.131" width="487" height="247.199"/>
		</defs>
		<clipPath id="SVGID_5_">
			<use xlink:href="#SVGID_4_"  overflow="visible"/>
		</clipPath>
		<linearGradient id="SVGID_6_" gradientUnits="userSpaceOnUse" x1="270.1348" y1="333.7312" x2="240.9383" y2="184.7927">
			<stop  offset="3.109453e-04" style="stop-color:#29B4EF;stop-opacity:0"/>
			<stop  offset="0.5572" style="stop-color:#2896EF;stop-opacity:0.2786"/>
			<stop  offset="0.9997" style="stop-color:#2882EF;stop-opacity:0.5"/>
		</linearGradient>
		<path clip-path="url(#SVGID_5_)" fill="url(#SVGID_6_)" d="M133.082,175.871c0.108,0.917,1.063,1.519,2.296,1.519
			c1.24,0,2.088-0.594,2.088-1.41c0-0.725-0.531-1.125-1.872-1.426l-1.449-0.316c-2.05-0.439-3.059-1.479-3.059-3.105
			c0-2.049,1.772-3.406,4.253-3.406c2.589,0,4.215,1.334,4.253,3.345h-2.181c-0.077-0.94-0.901-1.511-2.065-1.511
			c-1.148,0-1.919,0.548-1.919,1.372c0,0.687,0.54,1.071,1.818,1.364l1.349,0.285c2.227,0.478,3.198,1.434,3.198,3.128
			c0,2.157-1.749,3.522-4.508,3.522c-2.674,0-4.376-1.271-4.446-3.36H133.082z M149.433,174.792c0,2.697-1.325,4.346-3.452,4.346
			c-1.225,0-2.173-0.562-2.635-1.525h-0.046v4.199h-2.25v-11.258h2.219v1.449h0.046c0.447-0.955,1.441-1.549,2.635-1.549
			C148.1,170.454,149.433,172.095,149.433,174.792z M147.13,174.792c0-1.525-0.763-2.52-1.927-2.52c-1.148,0-1.911,1.01-1.911,2.527
			c0,1.525,0.763,2.52,1.911,2.52C146.366,177.319,147.13,176.333,147.13,174.792z M158.319,176.449
			c-0.247,1.642-1.78,2.735-3.845,2.735c-2.582,0-4.161-1.656-4.161-4.354s1.587-4.424,4.077-4.424c2.442,0,3.999,1.635,3.999,4.215
			v0.694h-5.856v0.139c0,1.226,0.794,2.05,1.98,2.05c0.848,0,1.518-0.4,1.734-1.056H158.319z M152.555,173.921h3.66
			c-0.039-1.109-0.763-1.834-1.803-1.834C153.387,172.087,152.632,172.835,152.555,173.921z M165.162,173.683
			c-0.123-0.879-0.74-1.502-1.718-1.502c-1.156,0-1.888,0.986-1.888,2.611c0,1.657,0.732,2.612,1.896,2.612
			c0.948,0,1.572-0.517,1.718-1.448h2.096c-0.131,1.973-1.61,3.229-3.837,3.229c-2.535,0-4.153-1.664-4.153-4.393
			c0-2.689,1.618-4.385,4.138-4.385c2.281,0,3.737,1.388,3.845,3.275H165.162z M168.338,168.45c0-0.67,0.547-1.171,1.209-1.171
			c0.67,0,1.218,0.501,1.218,1.171c0,0.671-0.547,1.18-1.218,1.18C168.884,169.63,168.338,169.121,168.338,168.45z M168.422,170.554
			h2.25v8.484h-2.25V170.554z M179.924,176.449c-0.247,1.642-1.78,2.735-3.845,2.735c-2.582,0-4.161-1.656-4.161-4.354
			s1.587-4.424,4.077-4.424c2.442,0,3.999,1.635,3.999,4.215v0.694h-5.856v0.139c0,1.226,0.794,2.05,1.98,2.05
			c0.848,0,1.518-0.4,1.734-1.056H179.924z M174.16,173.921h3.66c-0.039-1.109-0.763-1.834-1.803-1.834
			C174.992,172.087,174.237,172.835,174.16,173.921z M184.602,170.407c2.096,0,3.491,1.072,3.521,2.689h-2.081
			c-0.046-0.67-0.609-1.094-1.472-1.094c-0.81,0-1.349,0.361-1.349,0.909c0,0.424,0.37,0.709,1.133,0.886l1.595,0.348
			c1.703,0.385,2.381,1.039,2.381,2.304c0,1.649-1.518,2.735-3.737,2.735c-2.235,0-3.637-1.079-3.753-2.713h2.196
			c0.108,0.717,0.686,1.117,1.618,1.117c0.894,0,1.441-0.346,1.441-0.9c0-0.439-0.292-0.671-1.063-0.855l-1.564-0.355
			c-1.595-0.361-2.419-1.186-2.419-2.427C181.049,171.456,182.452,170.407,184.602,170.407z M52.922,179.038v-11.119h2.327v11.119
			H52.922z M61.379,167.919c3.336,0,5.302,1.988,5.302,5.518s-1.965,5.602-5.302,5.602h-4.284v-11.119H61.379z M59.422,177.112h1.68
			c2.081,0,3.206-1.264,3.206-3.668c0-2.328-1.156-3.607-3.206-3.607h-1.68V177.112z M258.376,179.038v-4.686h-5.009v4.686h-2.327
			v-11.119h2.327v4.516h5.009v-4.516h2.327v11.119H258.376z M262.034,176.595c0-1.541,1.179-2.411,3.344-2.542l2.119-0.132v-0.562
			c0-0.816-0.562-1.264-1.487-1.264c-0.816,0-1.387,0.432-1.495,1.049h-2.058c0.062-1.619,1.526-2.736,3.645-2.736
			c2.181,0,3.606,1.117,3.606,2.812v5.818h-2.173v-1.311h-0.046c-0.462,0.887-1.51,1.41-2.597,1.41
			C263.259,179.138,262.034,178.113,262.034,176.595z M267.498,175.925v-0.624l-1.78,0.124c-0.94,0.061-1.441,0.431-1.441,1.055
			c0,0.625,0.531,1.018,1.348,1.018C266.666,177.497,267.498,176.85,267.498,175.925z M273.532,177.589h-0.046v1.449h-2.211v-11.65
			h2.25v4.615h0.046c0.47-0.979,1.41-1.549,2.62-1.549c2.142,0,3.46,1.641,3.46,4.338s-1.318,4.346-3.452,4.346
			C274.958,179.138,274.002,178.567,273.532,177.589z M273.509,174.8c0.008,1.518,0.771,2.52,1.926,2.52
			c1.164,0,1.911-0.986,1.911-2.527c0-1.533-0.755-2.52-1.911-2.52C274.279,172.273,273.517,173.282,273.509,174.8z M280.806,168.45
			c0-0.67,0.547-1.171,1.209-1.171c0.67,0,1.218,0.501,1.218,1.171c0,0.671-0.547,1.18-1.218,1.18
			C281.353,169.63,280.806,169.121,280.806,168.45z M280.891,170.554h2.25v8.484h-2.25V170.554z M287.553,168.666v1.888h1.572v1.703
			h-1.572v4.123c0,0.654,0.324,0.971,1.01,0.971c0.2,0,0.424-0.016,0.562-0.039v1.665c-0.231,0.046-0.632,0.093-1.086,0.093
			c-1.965,0-2.736-0.663-2.736-2.32v-4.492h-1.148v-1.703h1.148v-1.888H287.553z M290.023,176.595c0-1.541,1.179-2.411,3.344-2.542
			l2.119-0.132v-0.562c0-0.816-0.562-1.264-1.487-1.264c-0.816,0-1.387,0.432-1.495,1.049h-2.058
			c0.062-1.619,1.526-2.736,3.645-2.736c2.181,0,3.606,1.117,3.606,2.812v5.818h-2.173v-1.311h-0.046
			c-0.462,0.887-1.51,1.41-2.597,1.41C291.248,179.138,290.023,178.113,290.023,176.595z M295.486,175.925v-0.624l-1.78,0.124
			c-0.94,0.061-1.441,0.431-1.441,1.055c0,0.625,0.531,1.018,1.348,1.018C294.654,177.497,295.486,176.85,295.486,175.925z
			 M302.052,168.666v1.888h1.572v1.703h-1.572v4.123c0,0.654,0.324,0.971,1.01,0.971c0.2,0,0.424-0.016,0.562-0.039v1.665
			c-0.231,0.046-0.632,0.093-1.086,0.093c-1.965,0-2.736-0.663-2.736-2.32v-4.492h-1.148v-1.703h1.148v-1.888H302.052z
			 M409.764,179.038h-2.327v-11.119h4.592c2.559,0,4.022,1.348,4.022,3.545c0,1.426-0.74,2.658-2.019,3.158l2.343,4.416h-2.635
			l-2.073-4.068h-1.903V179.038z M409.764,173.282h2.042c1.171,0,1.857-0.671,1.857-1.772c0-1.079-0.724-1.772-1.88-1.772h-2.019
			V173.282z M417.023,176.595c0-1.541,1.179-2.411,3.344-2.542l2.119-0.132v-0.562c0-0.816-0.562-1.264-1.487-1.264
			c-0.816,0-1.387,0.432-1.495,1.049h-2.058c0.062-1.619,1.526-2.736,3.645-2.736c2.181,0,3.606,1.117,3.606,2.812v5.818h-2.173
			v-1.311h-0.046c-0.462,0.887-1.51,1.41-2.597,1.41C418.248,179.138,417.023,178.113,417.023,176.595z M422.486,175.925v-0.624
			l-1.78,0.124c-0.94,0.061-1.441,0.431-1.441,1.055c0,0.625,0.531,1.018,1.348,1.018
			C421.654,177.497,422.486,176.85,422.486,175.925z M426.201,170.554h2.173v1.519h0.046c0.486-1.071,1.349-1.642,2.651-1.642
			c1.88,0,2.944,1.188,2.944,3.167v5.44h-2.25v-4.971c0-1.125-0.524-1.764-1.587-1.764c-1.079,0-1.726,0.77-1.726,1.895v4.84h-2.25
			V170.554z M435.448,179.648h2.211c0.185,0.601,0.863,1.009,1.757,1.009c1.21,0,1.888-0.671,1.888-1.68v-1.479h-0.046
			c-0.409,0.909-1.402,1.487-2.628,1.487c-2.065,0-3.452-1.603-3.452-4.216c0-2.658,1.341-4.314,3.491-4.314
			c1.218,0,2.181,0.608,2.628,1.549h0.039v-1.449h2.219v8.361c0,2.026-1.68,3.32-4.208,3.32
			C437.144,182.235,435.626,181.157,435.448,179.648z M441.312,174.784c0-1.525-0.755-2.512-1.926-2.512
			c-1.164,0-1.903,0.971-1.903,2.504c0,1.541,0.732,2.467,1.903,2.467S441.312,176.303,441.312,174.784z M452.763,176.449
			c-0.247,1.642-1.78,2.735-3.845,2.735c-2.582,0-4.161-1.656-4.161-4.354s1.587-4.424,4.077-4.424c2.442,0,3.999,1.635,3.999,4.215
			v0.694h-5.856v0.139c0,1.226,0.794,2.05,1.98,2.05c0.848,0,1.518-0.4,1.734-1.056H452.763z M447,173.921h3.66
			c-0.039-1.109-0.763-1.834-1.803-1.834C447.832,172.087,447.076,172.835,447,173.921z M131.356,215.832v-11.119h4.554
			c1.965,0,3.259,1.094,3.259,2.773c0,1.18-0.863,2.235-1.973,2.42v0.062c1.502,0.17,2.527,1.241,2.527,2.721
			c0,1.957-1.425,3.144-3.799,3.144H131.356z M133.082,209.444h2.042c1.502,0,2.327-0.617,2.327-1.719
			c0-1.032-0.709-1.603-1.965-1.603h-2.404V209.444z M135.579,214.422c1.557,0,2.381-0.64,2.381-1.842s-0.855-1.818-2.481-1.818
			h-2.396v3.66H135.579z M141.104,204.212h1.672v11.62h-1.672V204.212z M144.183,213.436c0-1.464,1.133-2.312,3.198-2.442
			l2.258-0.131v-0.647c0-0.956-0.639-1.479-1.757-1.479c-0.909,0-1.572,0.47-1.718,1.194h-1.564
			c0.046-1.479,1.449-2.574,3.329-2.574c2.042,0,3.36,1.079,3.36,2.735v5.741h-1.595v-1.395h-0.039
			c-0.462,0.909-1.502,1.479-2.643,1.479C145.339,215.917,144.183,214.931,144.183,213.436z M149.639,212.689v-0.655l-2.034,0.139
			c-1.141,0.069-1.734,0.493-1.734,1.232c0,0.717,0.625,1.18,1.587,1.18C148.699,214.584,149.639,213.79,149.639,212.689z
			 M158.517,210.322c-0.154-0.886-0.848-1.557-1.996-1.557c-1.349,0-2.243,1.125-2.243,2.882c0,1.804,0.909,2.882,2.25,2.882
			c1.087,0,1.803-0.531,2.004-1.51h1.595c-0.192,1.749-1.595,2.913-3.606,2.913c-2.374,0-3.938-1.634-3.938-4.285
			c0-2.604,1.557-4.292,3.922-4.292c2.134,0,3.46,1.356,3.606,2.967H158.517z M166.54,207.464h1.965l-3.498,3.606l3.622,4.762
			h-1.926l-2.89-3.745l-0.725,0.709v3.036h-1.672v-11.62h1.672v6.865h0.008L166.54,207.464z M171.688,205.583v1.881h1.603v1.317
			h-1.603v4.678c0,0.724,0.324,1.063,1.025,1.063c0.177,0,0.462-0.023,0.57-0.039v1.317c-0.185,0.047-0.578,0.085-0.94,0.085
			c-1.672,0-2.319-0.64-2.319-2.258v-4.847h-1.156v-1.317h1.156v-1.881H171.688z M174.62,205.306c0-0.547,0.439-0.963,0.979-0.963
			s0.979,0.416,0.979,0.963c0,0.532-0.439,0.964-0.979,0.964S174.62,205.838,174.62,205.306z M174.759,207.464h1.672v8.368h-1.672
			V207.464z M186.053,211.648c0,2.59-1.395,4.27-3.499,4.27c-1.202,0-2.15-0.532-2.651-1.457h-0.031v4.146h-1.672v-11.143h1.61
			v1.387h0.039c0.47-0.901,1.502-1.472,2.666-1.472C184.651,207.379,186.053,209.051,186.053,211.648z M184.342,211.648
			c0-1.726-0.894-2.851-2.25-2.851c-1.325,0-2.227,1.148-2.234,2.851c0.007,1.711,0.901,2.852,2.234,2.852
			C183.448,214.499,184.342,213.382,184.342,211.648z M55.673,206.424h-0.039l-2.905,2.064v-1.695l2.928-2.08h1.703v11.119h-1.688
			V206.424z M258.198,215.832h-7.059v-11.119h7.059v1.487h-5.333v3.252h5.047v1.433h-5.047v3.452h5.333V215.832z M267.646,211.648
			c0,2.59-1.395,4.27-3.499,4.27c-1.202,0-2.15-0.532-2.651-1.457h-0.031v4.146h-1.672v-11.143h1.61v1.387h0.039
			c0.47-0.901,1.502-1.472,2.666-1.472C266.244,207.379,267.646,209.051,267.646,211.648z M265.935,211.648
			c0-1.726-0.894-2.851-2.25-2.851c-1.325,0-2.227,1.148-2.234,2.851c0.007,1.711,0.901,2.852,2.234,2.852
			C265.042,214.499,265.935,213.382,265.935,211.648z M268.895,205.306c0-0.547,0.439-0.963,0.979-0.963s0.979,0.416,0.979,0.963
			c0,0.532-0.439,0.964-0.979,0.964S268.895,205.838,268.895,205.306z M269.034,207.464h1.672v8.368h-1.672V207.464z
			 M280.328,211.648c0,2.59-1.395,4.27-3.499,4.27c-1.202,0-2.15-0.532-2.651-1.457h-0.031v4.146h-1.672v-11.143h1.61v1.387h0.039
			c0.47-0.901,1.502-1.472,2.666-1.472C278.925,207.379,280.328,209.051,280.328,211.648z M278.617,211.648
			c0-1.726-0.894-2.851-2.25-2.851c-1.325,0-2.227,1.148-2.234,2.851c0.007,1.711,0.901,2.852,2.234,2.852
			C277.723,214.499,278.617,213.382,278.617,211.648z M288.804,213.382c-0.239,1.502-1.711,2.551-3.591,2.551
			c-2.427,0-3.938-1.634-3.938-4.254s1.526-4.323,3.869-4.323c2.296,0,3.745,1.596,3.745,4.131v0.585h-5.925v0.101
			c0,1.448,0.909,2.404,2.281,2.404c0.971,0,1.734-0.463,1.965-1.194H288.804z M282.971,210.885h4.246
			c-0.039-1.302-0.863-2.165-2.081-2.165C283.934,208.72,283.064,209.598,282.971,210.885z M290.293,204.212h1.672v11.62h-1.672
			V204.212z M293.372,213.436c0-1.464,1.133-2.312,3.198-2.442l2.258-0.131v-0.647c0-0.956-0.639-1.479-1.757-1.479
			c-0.909,0-1.572,0.47-1.718,1.194h-1.564c0.046-1.479,1.449-2.574,3.329-2.574c2.042,0,3.36,1.079,3.36,2.735v5.741h-1.595v-1.395
			h-0.039c-0.462,0.909-1.502,1.479-2.643,1.479C294.528,215.917,293.372,214.931,293.372,213.436z M298.827,212.689v-0.655
			l-2.034,0.139c-1.141,0.069-1.734,0.493-1.734,1.232c0,0.717,0.625,1.18,1.587,1.18
			C297.887,214.584,298.827,213.79,298.827,212.689z M302.081,216.495h1.688c0.239,0.709,1.025,1.179,2.011,1.179
			c1.364,0,2.181-0.778,2.181-1.942v-1.363h-0.039c-0.485,0.901-1.472,1.44-2.659,1.44c-2.088,0-3.491-1.641-3.491-4.191
			c0-2.582,1.387-4.238,3.529-4.238c1.187,0,2.158,0.547,2.674,1.472h0.031v-1.387h1.619v8.214c0,1.996-1.542,3.306-3.907,3.306
			C303.768,218.983,302.297,217.943,302.081,216.495z M307.96,211.625c0-1.695-0.902-2.828-2.258-2.828
			c-1.349,0-2.219,1.109-2.219,2.828c0,1.71,0.871,2.797,2.219,2.797C307.058,214.422,307.96,213.313,307.96,211.625z
			 M311.251,205.306c0-0.547,0.439-0.963,0.979-0.963s0.979,0.416,0.979,0.963c0,0.532-0.439,0.964-0.979,0.964
			S311.251,205.838,311.251,205.306z M311.39,207.464h1.672v8.368h-1.672V207.464z M320.387,210.322
			c-0.154-0.886-0.848-1.557-1.996-1.557c-1.349,0-2.243,1.125-2.243,2.882c0,1.804,0.91,2.882,2.25,2.882
			c1.087,0,1.803-0.531,2.004-1.51h1.595c-0.192,1.749-1.595,2.913-3.606,2.913c-2.374,0-3.938-1.634-3.938-4.285
			c0-2.604,1.557-4.292,3.922-4.292c2.135,0,3.46,1.356,3.606,2.967H320.387z M410.188,206.424h-0.039l-2.905,2.064v-1.695
			l2.928-2.08h1.703v11.119h-1.688V206.424z M414.459,213.089h1.734c0.262,0.909,1.109,1.518,2.134,1.518
			c1.734,0,2.751-1.603,2.751-4.407c0,0-0.008,0-0.016,0h-0.007h-0.008c-0.447,1.094-1.618,1.818-3.052,1.818
			c-2.111,0-3.691-1.564-3.691-3.676c0-2.227,1.711-3.845,4.061-3.845c1.649,0,2.974,0.84,3.691,2.335
			c0.455,0.886,0.686,1.98,0.686,3.282c0,3.722-1.649,5.926-4.438,5.926C416.324,216.04,414.79,214.854,414.459,213.089z
			 M420.747,208.319c0-1.318-1.032-2.351-2.358-2.351c-1.325,0-2.366,1.024-2.366,2.319c0,1.333,0.994,2.319,2.343,2.319
			C419.73,210.607,420.747,209.629,420.747,208.319z M424.084,210.261c0-3.521,1.595-5.756,4.246-5.756
			c2.659,0,4.23,2.227,4.23,5.748c0,3.545-1.564,5.787-4.23,5.787C425.663,216.04,424.084,213.806,424.084,210.261z
			 M430.819,210.261c0-2.65-0.917-4.308-2.489-4.308c-1.572,0-2.497,1.665-2.497,4.308c0,2.682,0.909,4.331,2.497,4.331
			S430.819,212.95,430.819,210.261z M434.086,207.464h1.595v1.418h0.031c0.385-0.94,1.287-1.511,2.381-1.511
			c1.164,0,2.003,0.586,2.342,1.626h0.039c0.439-1.01,1.426-1.626,2.62-1.626c1.649,0,2.728,1.087,2.728,2.759v5.702h-1.665v-5.302
			c0-1.094-0.593-1.726-1.634-1.726c-1.025,0-1.749,0.763-1.749,1.834v5.193h-1.642v-5.44c0-0.971-0.624-1.587-1.603-1.587
			c-1.033,0-1.772,0.801-1.772,1.896v5.132h-1.672V207.464z M141.374,246.02c0,3.537-2.011,5.74-5.209,5.74
			c-3.206,0-5.209-2.203-5.209-5.74s2.003-5.749,5.209-5.749C139.362,240.271,141.374,242.482,141.374,246.02z M132.72,246.02
			c0,2.589,1.333,4.223,3.444,4.223s3.437-1.634,3.437-4.223c0-2.597-1.326-4.23-3.437-4.23S132.72,243.423,132.72,246.02z
			 M148.392,246.066c-0.154-0.886-0.848-1.557-1.996-1.557c-1.349,0-2.243,1.125-2.243,2.882c0,1.804,0.91,2.882,2.25,2.882
			c1.087,0,1.803-0.531,2.004-1.51h1.595c-0.192,1.749-1.595,2.913-3.606,2.913c-2.374,0-3.938-1.634-3.938-4.285
			c0-2.604,1.557-4.292,3.922-4.292c2.135,0,3.46,1.356,3.606,2.967H148.392z M158.372,249.125
			c-0.239,1.502-1.711,2.551-3.591,2.551c-2.427,0-3.938-1.634-3.938-4.254s1.526-4.323,3.869-4.323
			c2.296,0,3.745,1.596,3.745,4.131v0.585h-5.925v0.101c0,1.448,0.909,2.404,2.281,2.404c0.971,0,1.734-0.463,1.965-1.194H158.372z
			 M152.539,246.628h4.246c-0.039-1.302-0.863-2.165-2.081-2.165C153.502,244.463,152.632,245.341,152.539,246.628z
			 M159.421,249.179c0-1.464,1.133-2.312,3.198-2.442l2.258-0.131v-0.647c0-0.956-0.64-1.479-1.757-1.479
			c-0.909,0-1.572,0.47-1.718,1.194h-1.564c0.046-1.479,1.449-2.574,3.329-2.574c2.042,0,3.36,1.079,3.36,2.735v5.741h-1.595v-1.395
			h-0.039c-0.462,0.909-1.502,1.479-2.643,1.479C160.577,251.66,159.421,250.674,159.421,249.179z M164.877,248.432v-0.655
			l-2.034,0.139c-1.141,0.069-1.734,0.493-1.734,1.232c0,0.717,0.625,1.18,1.587,1.18
			C163.937,250.327,164.877,249.533,164.877,248.432z M168.199,243.207h1.595v1.41h0.031c0.508-0.986,1.348-1.503,2.643-1.503
			c1.849,0,2.905,1.171,2.905,3.098v5.363h-1.672v-5.047c0-1.271-0.586-1.98-1.811-1.98c-1.264,0-2.019,0.878-2.019,2.196v4.831
			h-1.672V243.207z M176.961,241.049c0-0.547,0.439-0.963,0.979-0.963s0.979,0.416,0.979,0.963c0,0.532-0.439,0.964-0.979,0.964
			S176.961,241.581,176.961,241.049z M177.1,243.207h1.672v8.368H177.1V243.207z M186.097,246.066
			c-0.154-0.886-0.848-1.557-1.996-1.557c-1.349,0-2.243,1.125-2.243,2.882c0,1.804,0.909,2.882,2.25,2.882
			c1.087,0,1.803-0.531,2.004-1.51h1.595c-0.192,1.749-1.595,2.913-3.606,2.913c-2.374,0-3.938-1.634-3.938-4.285
			c0-2.604,1.557-4.292,3.922-4.292c2.134,0,3.46,1.356,3.606,2.967H186.097z M56.59,240.248c2.119,0,3.699,1.349,3.699,3.113
			c0,1.294-0.694,2.258-2.32,3.922l-2.782,2.797v0.039h5.279v1.456H52.86v-1.171l4.015-4.092c1.356-1.41,1.71-1.996,1.71-2.867
			c0-0.986-0.894-1.771-2.05-1.771c-1.217,0-2.134,0.878-2.134,2.034v0.022h-1.634v-0.015
			C52.767,241.712,54.378,240.248,56.59,240.248z M255.493,240.456c2.158,0,3.668,1.487,3.668,3.652
			c0,2.173-1.541,3.668-3.722,3.668h-2.574v3.799h-1.726v-11.119H255.493z M252.866,246.327h2.173c1.495,0,2.358-0.809,2.358-2.211
			s-0.855-2.204-2.358-2.204h-2.173V246.327z M267.299,249.125c-0.239,1.502-1.711,2.551-3.591,2.551
			c-2.427,0-3.938-1.634-3.938-4.254s1.526-4.323,3.869-4.323c2.296,0,3.745,1.596,3.745,4.131v0.585h-5.925v0.101
			c0,1.448,0.909,2.404,2.281,2.404c0.971,0,1.734-0.463,1.965-1.194H267.299z M261.466,246.628h4.246
			c-0.039-1.302-0.863-2.165-2.081-2.165C262.429,244.463,261.559,245.341,261.466,246.628z M268.787,239.955h1.672v11.62h-1.672
			V239.955z M271.867,249.179c0-1.464,1.133-2.312,3.198-2.442l2.258-0.131v-0.647c0-0.956-0.639-1.479-1.757-1.479
			c-0.909,0-1.572,0.47-1.718,1.194h-1.564c0.046-1.479,1.449-2.574,3.329-2.574c2.042,0,3.36,1.079,3.36,2.735v5.741h-1.595v-1.395
			h-0.039c-0.462,0.909-1.502,1.479-2.643,1.479C273.023,251.66,271.867,250.674,271.867,249.179z M277.322,248.432v-0.655
			l-2.034,0.139c-1.141,0.069-1.734,0.493-1.734,1.232c0,0.717,0.625,1.18,1.587,1.18
			C276.383,250.327,277.322,249.533,277.322,248.432z M280.575,252.238h1.688c0.239,0.709,1.025,1.179,2.011,1.179
			c1.364,0,2.181-0.778,2.181-1.942v-1.363h-0.039c-0.485,0.901-1.472,1.44-2.659,1.44c-2.088,0-3.491-1.641-3.491-4.191
			c0-2.582,1.387-4.238,3.529-4.238c1.187,0,2.158,0.547,2.674,1.472h0.031v-1.387h1.619v8.214c0,1.996-1.542,3.306-3.907,3.306
			C282.263,254.727,280.791,253.687,280.575,252.238z M286.455,247.368c0-1.695-0.902-2.828-2.258-2.828
			c-1.349,0-2.219,1.109-2.219,2.828c0,1.71,0.871,2.797,2.219,2.797C285.553,250.165,286.455,249.056,286.455,247.368z
			 M289.746,241.049c0-0.547,0.439-0.963,0.979-0.963s0.979,0.416,0.979,0.963c0,0.532-0.439,0.964-0.979,0.964
			S289.746,241.581,289.746,241.049z M289.884,243.207h1.672v8.368h-1.672V243.207z M298.882,246.066
			c-0.154-0.886-0.848-1.557-1.996-1.557c-1.349,0-2.243,1.125-2.243,2.882c0,1.804,0.91,2.882,2.25,2.882
			c1.087,0,1.803-0.531,2.004-1.51h1.595c-0.192,1.749-1.595,2.913-3.606,2.913c-2.374,0-3.938-1.634-3.938-4.285
			c0-2.604,1.557-4.292,3.922-4.292c2.135,0,3.46,1.356,3.606,2.967H298.882z M409.795,245.188h1.341
			c1.202,0,2.026-0.756,2.026-1.804c0-1.032-0.709-1.718-2.026-1.718c-1.202,0-2.003,0.693-2.104,1.787h-1.625
			c0.131-1.949,1.603-3.205,3.807-3.205c2.104,0,3.637,1.194,3.637,2.905c0,1.387-0.909,2.381-2.289,2.627v0.031
			c1.672,0.115,2.751,1.141,2.751,2.697c0,1.941-1.765,3.274-4.084,3.274c-2.396,0-3.938-1.317-4.045-3.236h1.657
			c0.108,1.063,0.986,1.796,2.389,1.796c1.356,0,2.327-0.771,2.327-1.857c0-1.202-0.909-1.942-2.374-1.942h-1.387V245.188z
			 M422.479,241.951v-0.039h-5.864v-1.456h7.567v1.495l-4.831,9.624h-1.811L422.479,241.951z M425.685,243.207h1.595v1.418h0.031
			c0.385-0.94,1.287-1.511,2.381-1.511c1.164,0,2.003,0.586,2.342,1.626h0.039c0.439-1.01,1.426-1.626,2.62-1.626
			c1.649,0,2.728,1.087,2.728,2.759v5.702h-1.665v-5.302c0-1.094-0.593-1.726-1.634-1.726c-1.025,0-1.749,0.763-1.749,1.834v5.193
			h-1.642v-5.44c0-0.971-0.624-1.587-1.603-1.587c-1.033,0-1.772,0.801-1.772,1.896v5.132h-1.672V243.207z M131.356,285.216v-11.119
			h1.564l5.764,8.198h0.062v-8.198h1.68v11.119h-1.556l-5.764-8.191h-0.069v8.191H131.356z M149.433,285.216h-1.595v-1.434h-0.031
			c-0.485,0.994-1.333,1.526-2.612,1.526c-1.826,0-2.936-1.18-2.936-3.098v-5.363h1.672v5.047c0,1.287,0.609,1.973,1.819,1.973
			c1.248,0,2.011-0.87,2.011-2.196v-4.823h1.672V285.216z M151.136,276.848h1.595v1.41h0.031c0.262-0.933,1.032-1.495,2.019-1.495
			c0.247,0,0.455,0.023,0.586,0.054v1.564c-0.139-0.054-0.432-0.101-0.763-0.101c-1.102,0-1.795,0.764-1.795,1.942v4.993h-1.672
			V276.848z M159.539,276.747c1.833,0,3.159,1.033,3.198,2.489h-1.572c-0.069-0.74-0.708-1.202-1.664-1.202
			c-0.948,0-1.58,0.439-1.58,1.102c0,0.509,0.417,0.855,1.303,1.071l1.387,0.331c1.688,0.409,2.312,1.018,2.312,2.25
			c0,1.495-1.418,2.528-3.445,2.528c-1.949,0-3.282-1.01-3.406-2.521h1.649c0.131,0.802,0.778,1.241,1.842,1.241
			c1.04,0,1.695-0.432,1.695-1.11c0-0.531-0.332-0.809-1.21-1.032l-1.495-0.37c-1.511-0.369-2.258-1.14-2.258-2.296
			C156.295,277.757,157.612,276.747,159.539,276.747z M171.423,282.766c-0.239,1.502-1.711,2.551-3.591,2.551
			c-2.427,0-3.938-1.634-3.938-4.254s1.526-4.323,3.869-4.323c2.296,0,3.745,1.596,3.745,4.131v0.585h-5.925v0.101
			c0,1.448,0.909,2.404,2.281,2.404c0.971,0,1.734-0.463,1.965-1.194H171.423z M165.59,280.269h4.246
			c-0.039-1.302-0.863-2.165-2.081-2.165C166.553,278.104,165.682,278.982,165.59,280.269z M55.279,278.828h1.341
			c1.202,0,2.026-0.756,2.026-1.804c0-1.032-0.709-1.718-2.026-1.718c-1.202,0-2.003,0.693-2.104,1.787h-1.625
			c0.131-1.949,1.603-3.205,3.807-3.205c2.104,0,3.637,1.194,3.637,2.905c0,1.387-0.909,2.381-2.289,2.627v0.031
			c1.672,0.115,2.751,1.141,2.751,2.697c0,1.941-1.765,3.274-4.084,3.274c-2.396,0-3.938-1.317-4.045-3.236h1.657
			c0.108,1.063,0.986,1.796,2.389,1.796c1.356,0,2.327-0.771,2.327-1.857c0-1.202-0.909-1.942-2.374-1.942h-1.387V278.828z
			 M253.96,285.216v-9.632h-3.468v-1.487h8.654v1.487h-3.46v9.632H253.96z M259.355,276.848h1.595v1.41h0.031
			c0.262-0.933,1.032-1.495,2.019-1.495c0.247,0,0.455,0.023,0.586,0.054v1.564c-0.139-0.054-0.432-0.101-0.763-0.101
			c-1.102,0-1.795,0.764-1.795,1.942v4.993h-1.672V276.848z M263.928,281.031c0-2.627,1.549-4.292,3.961-4.292
			s3.953,1.657,3.953,4.292c0,2.636-1.534,4.285-3.953,4.285S263.928,283.667,263.928,281.031z M270.147,281.031
			c0-1.826-0.84-2.904-2.258-2.904s-2.266,1.086-2.266,2.904c0,1.826,0.848,2.897,2.266,2.897S270.147,282.858,270.147,281.031z
			 M281.029,281.031c0,2.59-1.395,4.27-3.499,4.27c-1.202,0-2.15-0.532-2.651-1.457h-0.031v4.146h-1.672v-11.143h1.61v1.387h0.039
			c0.47-0.901,1.502-1.472,2.666-1.472C279.626,276.763,281.029,278.435,281.029,281.031z M279.318,281.031
			c0-1.726-0.894-2.851-2.25-2.851c-1.325,0-2.227,1.148-2.234,2.851c0.007,1.711,0.901,2.852,2.234,2.852
			C278.424,283.883,279.318,282.766,279.318,281.031z M282.277,274.69c0-0.547,0.439-0.963,0.979-0.963s0.979,0.416,0.979,0.963
			c0,0.532-0.439,0.964-0.979,0.964S282.277,275.222,282.277,274.69z M282.416,276.848h1.672v8.368h-1.672V276.848z
			 M291.413,279.706c-0.154-0.886-0.848-1.557-1.996-1.557c-1.349,0-2.243,1.125-2.243,2.882c0,1.804,0.91,2.882,2.25,2.882
			c1.087,0,1.803-0.531,2.004-1.51h1.595c-0.192,1.749-1.595,2.913-3.606,2.913c-2.374,0-3.938-1.634-3.938-4.285
			c0-2.604,1.557-4.292,3.922-4.292c2.135,0,3.46,1.356,3.606,2.967H291.413z M293.872,282.819c0-1.464,1.133-2.312,3.198-2.442
			l2.258-0.131v-0.647c0-0.956-0.64-1.479-1.757-1.479c-0.909,0-1.572,0.47-1.718,1.194h-1.564c0.046-1.479,1.449-2.574,3.329-2.574
			c2.042,0,3.36,1.079,3.36,2.735v5.741h-1.595v-1.395h-0.039c-0.462,0.909-1.502,1.479-2.643,1.479
			C295.028,285.301,293.872,284.315,293.872,282.819z M299.328,282.072v-0.655l-2.034,0.139c-1.141,0.069-1.734,0.493-1.734,1.232
			c0,0.717,0.625,1.18,1.587,1.18C298.388,283.968,299.328,283.174,299.328,282.072z M302.72,273.596h1.672v11.62h-1.672V273.596z
			 M410.188,275.808h-0.039l-2.905,2.064v-1.695l2.928-2.08h1.703v11.119h-1.688V275.808z M414.382,279.645
			c0-3.521,1.595-5.756,4.246-5.756c2.659,0,4.23,2.227,4.23,5.748c0,3.545-1.564,5.787-4.23,5.787
			C415.962,285.424,414.382,283.19,414.382,279.645z M421.117,279.645c0-2.65-0.917-4.308-2.489-4.308
			c-1.572,0-2.497,1.665-2.497,4.308c0,2.682,0.91,4.331,2.497,4.331C420.215,283.976,421.117,282.334,421.117,279.645z
			 M424.384,276.848h1.595v1.418h0.031c0.385-0.94,1.287-1.511,2.381-1.511c1.164,0,2.003,0.586,2.342,1.626h0.039
			c0.439-1.01,1.426-1.626,2.62-1.626c1.649,0,2.728,1.087,2.728,2.759v5.702h-1.665v-5.302c0-1.094-0.593-1.726-1.634-1.726
			c-1.025,0-1.749,0.763-1.749,1.834v5.193h-1.642v-5.44c0-0.971-0.624-1.587-1.603-1.587c-1.033,0-1.772,0.801-1.772,1.896v5.132
			h-1.672V276.848z M132.566,314.707c0.123,1.102,1.194,1.826,2.658,1.826c1.402,0,2.412-0.725,2.412-1.719
			c0-0.862-0.609-1.379-2.05-1.733l-1.441-0.347c-2.042-0.493-2.99-1.448-2.99-2.997c0-1.919,1.672-3.237,4.045-3.237
			c2.35,0,3.96,1.318,4.015,3.237h-1.68c-0.1-1.11-1.017-1.78-2.358-1.78s-2.257,0.678-2.257,1.664c0,0.786,0.585,1.248,2.019,1.603
			l1.225,0.301c2.281,0.539,3.229,1.456,3.229,3.082c0,2.081-1.657,3.383-4.292,3.383c-2.466,0-4.13-1.271-4.238-3.282H132.566z
			 M140.395,315.408c0-1.464,1.133-2.312,3.198-2.442l2.258-0.131v-0.647c0-0.956-0.639-1.479-1.757-1.479
			c-0.909,0-1.572,0.47-1.718,1.194h-1.564c0.046-1.479,1.449-2.574,3.329-2.574c2.042,0,3.36,1.079,3.36,2.735v5.741h-1.595v-1.395
			h-0.039c-0.462,0.909-1.502,1.479-2.643,1.479C141.551,317.89,140.395,316.903,140.395,315.408z M145.851,314.661v-0.655
			l-2.034,0.139c-1.141,0.069-1.734,0.493-1.734,1.232c0,0.717,0.625,1.18,1.587,1.18
			C144.911,316.557,145.851,315.763,145.851,314.661z M149.173,309.437h1.595v1.41h0.031c0.508-0.986,1.348-1.503,2.643-1.503
			c1.849,0,2.905,1.171,2.905,3.098v5.363h-1.672v-5.047c0-1.271-0.586-1.98-1.811-1.98c-1.264,0-2.019,0.878-2.019,2.196v4.831
			h-1.672V309.437z M157.634,313.612c0-2.573,1.434-4.261,3.514-4.261c1.202,0,2.157,0.547,2.635,1.472h0.039v-4.639h1.665v11.62
			h-1.619v-1.418h-0.031c-0.493,0.948-1.449,1.503-2.674,1.503C159.068,317.89,157.634,316.202,157.634,313.612z M159.345,313.62
			c0,1.734,0.886,2.852,2.242,2.852c1.341,0,2.243-1.141,2.243-2.852c0-1.702-0.902-2.851-2.243-2.851
			C160.239,310.77,159.345,311.895,159.345,313.62z M173.876,317.805v-9.632h-3.468v-1.487h8.654v1.487h-3.46v9.632H173.876z
			 M180.026,307.278c0-0.547,0.439-0.963,0.979-0.963s0.979,0.416,0.979,0.963c0,0.532-0.439,0.964-0.979,0.964
			S180.026,307.811,180.026,307.278z M180.164,309.437h1.672v8.368h-1.672V309.437z M183.537,318.468h1.688
			c0.239,0.709,1.025,1.179,2.011,1.179c1.364,0,2.181-0.778,2.181-1.942v-1.363h-0.039c-0.485,0.901-1.472,1.44-2.659,1.44
			c-2.088,0-3.491-1.641-3.491-4.191c0-2.582,1.387-4.238,3.529-4.238c1.187,0,2.158,0.547,2.674,1.472h0.031v-1.387h1.619v8.214
			c0,1.996-1.542,3.306-3.907,3.306C185.224,320.956,183.753,319.916,183.537,318.468z M189.416,313.598
			c0-1.695-0.902-2.828-2.258-2.828c-1.349,0-2.219,1.109-2.219,2.828c0,1.71,0.871,2.797,2.219,2.797
			C188.514,316.395,189.416,315.285,189.416,313.598z M199.935,315.355c-0.239,1.502-1.711,2.551-3.591,2.551
			c-2.427,0-3.938-1.634-3.938-4.254s1.526-4.323,3.869-4.323c2.296,0,3.745,1.596,3.745,4.131v0.585h-5.925v0.101
			c0,1.448,0.909,2.404,2.281,2.404c0.971,0,1.734-0.463,1.965-1.194H199.935z M194.101,312.858h4.246
			c-0.039-1.302-0.863-2.165-2.081-2.165C195.065,310.692,194.194,311.57,194.101,312.858z M201.354,309.437h1.595v1.41h0.031
			c0.262-0.933,1.032-1.495,2.019-1.495c0.247,0,0.455,0.023,0.586,0.054v1.564c-0.139-0.054-0.432-0.101-0.763-0.101
			c-1.102,0-1.795,0.764-1.795,1.942v4.993h-1.672V309.437z M58.146,315.608h-5.563v-1.51c0.956-1.796,2.219-3.792,4.724-7.413
			h2.497v7.475h1.526v1.448h-1.526v2.196h-1.657V315.608z M54.193,314.183h3.968v-6.164h-0.031
			c-1.926,2.781-3.052,4.516-3.938,6.126V314.183z M260.81,317.805v-8.184h-0.054l-3.352,8.099h-1.279l-3.359-8.099h-0.054v8.184
			h-1.572v-11.119h1.996l3.599,8.776h0.062l3.591-8.776h2.004v11.119H260.81z M271.411,315.355
			c-0.239,1.502-1.711,2.551-3.591,2.551c-2.427,0-3.938-1.634-3.938-4.254s1.526-4.323,3.869-4.323
			c2.296,0,3.745,1.596,3.745,4.131v0.585h-5.925v0.101c0,1.448,0.909,2.404,2.281,2.404c0.971,0,1.734-0.463,1.965-1.194H271.411z
			 M265.577,312.858h4.246c-0.039-1.302-0.863-2.165-2.081-2.165C266.541,310.692,265.67,311.57,265.577,312.858z M275.935,309.336
			c1.834,0,3.159,1.033,3.198,2.489h-1.572c-0.069-0.74-0.708-1.202-1.664-1.202c-0.948,0-1.58,0.439-1.58,1.102
			c0,0.509,0.416,0.855,1.302,1.071l1.387,0.331c1.688,0.409,2.312,1.018,2.312,2.25c0,1.495-1.418,2.528-3.445,2.528
			c-1.949,0-3.283-1.01-3.406-2.521h1.649c0.131,0.802,0.778,1.241,1.842,1.241c1.04,0,1.695-0.432,1.695-1.11
			c0-0.531-0.332-0.809-1.21-1.032l-1.495-0.37c-1.511-0.369-2.258-1.14-2.258-2.296
			C272.691,310.346,274.008,309.336,275.935,309.336z M280.29,313.62c0-2.627,1.549-4.292,3.961-4.292s3.953,1.657,3.953,4.292
			c0,2.636-1.534,4.285-3.953,4.285S280.29,316.256,280.29,313.62z M286.509,313.62c0-1.826-0.84-2.904-2.258-2.904
			s-2.266,1.086-2.266,2.904c0,1.826,0.848,2.897,2.266,2.897S286.509,315.446,286.509,313.62z M297.39,313.62
			c0,2.59-1.395,4.27-3.499,4.27c-1.202,0-2.15-0.532-2.651-1.457h-0.031v4.146h-1.672v-11.143h1.61v1.387h0.039
			c0.47-0.901,1.502-1.472,2.666-1.472C295.988,309.352,297.39,311.024,297.39,313.62z M295.679,313.62
			c0-1.726-0.894-2.851-2.25-2.851c-1.325,0-2.227,1.148-2.234,2.851c0.007,1.711,0.901,2.852,2.234,2.852
			C294.786,316.472,295.679,315.355,295.679,313.62z M305.867,315.355c-0.239,1.502-1.711,2.551-3.591,2.551
			c-2.427,0-3.938-1.634-3.938-4.254s1.526-4.323,3.869-4.323c2.296,0,3.745,1.596,3.745,4.131v0.585h-5.925v0.101
			c0,1.448,0.909,2.404,2.281,2.404c0.971,0,1.734-0.463,1.965-1.194H305.867z M300.033,312.858h4.246
			c-0.039-1.302-0.863-2.165-2.081-2.165C300.997,310.692,300.126,311.57,300.033,312.858z M307.355,306.185h1.672v11.62h-1.672
			V306.185z M310.434,315.408c0-1.464,1.133-2.312,3.198-2.442l2.258-0.131v-0.647c0-0.956-0.639-1.479-1.757-1.479
			c-0.909,0-1.572,0.47-1.718,1.194h-1.564c0.046-1.479,1.449-2.574,3.329-2.574c2.042,0,3.36,1.079,3.36,2.735v5.741h-1.595v-1.395
			h-0.039c-0.462,0.909-1.502,1.479-2.643,1.479C311.59,317.89,310.434,316.903,310.434,315.408z M315.89,314.661v-0.655
			l-2.034,0.139c-1.141,0.069-1.734,0.493-1.734,1.232c0,0.717,0.625,1.18,1.587,1.18C314.95,316.557,315.89,315.763,315.89,314.661
			z M319.143,318.468h1.688c0.239,0.709,1.025,1.179,2.011,1.179c1.364,0,2.181-0.778,2.181-1.942v-1.363h-0.039
			c-0.485,0.901-1.472,1.44-2.659,1.44c-2.088,0-3.491-1.641-3.491-4.191c0-2.582,1.387-4.238,3.529-4.238
			c1.187,0,2.158,0.547,2.674,1.472h0.031v-1.387h1.619v8.214c0,1.996-1.542,3.306-3.907,3.306
			C320.831,320.956,319.359,319.916,319.143,318.468z M325.023,313.598c0-1.695-0.902-2.828-2.258-2.828
			c-1.349,0-2.219,1.109-2.219,2.828c0,1.71,0.871,2.797,2.219,2.797C324.121,316.395,325.023,315.285,325.023,313.598z
			 M328.313,307.278c0-0.547,0.439-0.963,0.979-0.963s0.979,0.416,0.979,0.963c0,0.532-0.439,0.964-0.979,0.964
			S328.313,307.811,328.313,307.278z M328.452,309.437h1.672v8.368h-1.672V309.437z M337.449,312.295
			c-0.154-0.886-0.848-1.557-1.996-1.557c-1.349,0-2.243,1.125-2.243,2.882c0,1.804,0.91,2.882,2.25,2.882
			c1.087,0,1.803-0.531,2.004-1.51h1.595c-0.192,1.749-1.595,2.913-3.606,2.913c-2.374,0-3.938-1.634-3.938-4.285
			c0-2.604,1.557-4.292,3.922-4.292c2.135,0,3.46,1.356,3.606,2.967H337.449z M411.105,306.478c2.119,0,3.699,1.349,3.699,3.113
			c0,1.294-0.694,2.258-2.32,3.922l-2.782,2.797v0.039h5.279v1.456h-7.605v-1.171l4.015-4.092c1.356-1.41,1.71-1.996,1.71-2.867
			c0-0.986-0.894-1.771-2.05-1.771c-1.217,0-2.134,0.878-2.134,2.034v0.022h-1.634v-0.015
			C407.283,307.941,408.893,306.478,411.105,306.478z M416.315,312.233c0-3.521,1.595-5.756,4.246-5.756
			c2.659,0,4.23,2.227,4.23,5.748c0,3.545-1.564,5.787-4.23,5.787C417.894,318.013,416.315,315.778,416.315,312.233z
			 M423.049,312.233c0-2.65-0.917-4.308-2.489-4.308c-1.572,0-2.497,1.665-2.497,4.308c0,2.682,0.91,4.331,2.497,4.331
			C422.148,316.565,423.049,314.923,423.049,312.233z M426.132,312.233c0-3.521,1.595-5.756,4.246-5.756
			c2.659,0,4.23,2.227,4.23,5.748c0,3.545-1.564,5.787-4.23,5.787C427.711,318.013,426.132,315.778,426.132,312.233z
			 M432.866,312.233c0-2.65-0.917-4.308-2.489-4.308c-1.572,0-2.497,1.665-2.497,4.308c0,2.682,0.909,4.331,2.497,4.331
			S432.866,314.923,432.866,312.233z M436.134,309.437h1.595v1.418h0.031c0.385-0.94,1.287-1.511,2.381-1.511
			c1.164,0,2.003,0.586,2.342,1.626h0.039c0.439-1.01,1.426-1.626,2.62-1.626c1.649,0,2.728,1.087,2.728,2.759v5.702h-1.665v-5.302
			c0-1.094-0.593-1.726-1.634-1.726c-1.025,0-1.749,0.763-1.749,1.834v5.193h-1.642v-5.44c0-0.971-0.624-1.587-1.603-1.587
			c-1.033,0-1.772,0.801-1.772,1.896v5.132h-1.672V309.437z"/>
	</g>
	<g opacity="0.15">
		<line fill="none" stroke="#001A30" stroke-miterlimit="10" x1="480.513" y1="192.456" x2="29.513" y2="192.456"/>
		<line fill="none" stroke="#001A30" stroke-miterlimit="10" x1="480.513" y1="228.456" x2="29.513" y2="228.456"/>
		<line fill="none" stroke="#001A30" stroke-miterlimit="10" x1="480.513" y1="263.456" x2="29.513" y2="263.456"/>
	</g>
</g>
<polygon fill="none" points="9.995,269.12 151.789,242.796 203.514,164.161 226.656,73.956 290.447,135.226 345.051,222.747 
	498.513,247.956 498.513,329.956 9.513,329.956 "/>
<polyline fill="none" stroke="#00BDFF" stroke-width="3" stroke-linecap="round" stroke-linejoin="round" stroke-miterlimit="10" points="
	0.214,271.12 151.898,242.796 203.568,164.161 226.684,73.956 290.461,135.226 345.058,222.747 508.513,247.956 "/>
</svg>
