<svg xmlns="http://www.w3.org/2000/svg" width="20" height="21" viewBox="0 0 20 21">
    <path fill="#008cff" fill-rule="evenodd" d="M3.125,7.828125 C3.67187773,7.97135488 4.12109199,8.2643207 4.47265625,8.70703125 C4.82422051,9.1497418 5,9.66405957 5,10.25 C5,10.8359404 4.82422051,11.3502582 4.47265625,11.7929688 C4.12109199,12.2356793 3.67187773,12.5286451 3.125,12.671875 L3.125,19.625 C3.125,19.7942717 3.06315166,19.9407546 2.93945312,20.0644531 C2.81575459,20.1881517 2.66927168,20.25 2.5,20.25 C2.33072832,20.25 2.18424541,20.1881517 2.06054688,20.0644531 C1.93684834,19.9407546 1.875,19.7942717 1.875,19.625 L1.875,12.671875 C1.34114316,12.5286451 0.895184082,12.2356793 0.537109375,11.7929688 C0.179034668,11.3502582 0,10.8359404 0,10.25 C0,9.66405957 0.179034668,9.1497418 0.537109375,8.70703125 C0.895184082,8.2643207 1.34114316,7.97135488 1.875,7.828125 L1.875,0.875 C1.875,0.70572832 1.93684834,0.55924541 2.06054688,0.435546875 C2.18424541,0.31184834 2.33072832,0.25 2.5,0.25 C2.66927168,0.25 2.81575459,0.31184834 2.93945312,0.435546875 C3.06315166,0.55924541 3.125,0.70572832 3.125,0.875 L3.125,7.828125 Z M2.5,11.5 C2.85156426,11.5 3.14778525,11.3763033 3.38867188,11.1289062 C3.6295585,10.8815092 3.75,10.5885434 3.75,10.25 C3.75,9.91145664 3.6295585,9.61849082 3.38867188,9.37109375 C3.14778525,9.12369668 2.85156426,9 2.5,9 C2.14843574,9 1.85221475,9.12369668 1.61132812,9.37109375 C1.3704415,9.61849082 1.25,9.91145664 1.25,10.25 C1.25,10.5885434 1.3704415,10.8815092 1.61132812,11.1289062 C1.85221475,11.3763033 2.14843574,11.5 2.5,11.5 Z M10.625,11.578125 C11.1718777,11.7213549 11.621092,12.0143207 11.9726562,12.4570312 C12.3242205,12.8997418 12.5,13.4140596 12.5,14 C12.5,14.5859404 12.3242205,15.1002582 11.9726562,15.5429688 C11.621092,15.9856793 11.1718777,16.2786451 10.625,16.421875 L10.625,19.625 C10.625,19.7942717 10.5631517,19.9407546 10.4394531,20.0644531 C10.3157546,20.1881517 10.1692717,20.25 10,20.25 C9.83072832,20.25 9.68424541,20.1881517 9.56054688,20.0644531 C9.43684834,19.9407546 9.375,19.7942717 9.375,19.625 L9.375,16.421875 C8.84114316,16.2786451 8.39518408,15.9856793 8.03710938,15.5429688 C7.67903467,15.1002582 7.5,14.5859404 7.5,14 C7.5,13.4140596 7.67903467,12.8997418 8.03710938,12.4570312 C8.39518408,12.0143207 8.84114316,11.7213549 9.375,11.578125 L9.375,0.875 C9.375,0.70572832 9.43684834,0.55924541 9.56054688,0.435546875 C9.68424541,0.31184834 9.83072832,0.25 10,0.25 C10.1692717,0.25 10.3157546,0.31184834 10.4394531,0.435546875 C10.5631517,0.55924541 10.625,0.70572832 10.625,0.875 L10.625,11.578125 Z M10,15.25 C10.3515643,15.25 10.6477853,15.1263033 10.8886719,14.8789062 C11.1295585,14.6315092 11.25,14.3385434 11.25,14 C11.25,13.6614566 11.1295585,13.3684908 10.8886719,13.1210938 C10.6477853,12.8736967 10.3515643,12.75 10,12.75 C9.64843574,12.75 9.35221475,12.8736967 9.11132812,13.1210938 C8.8704415,13.3684908 8.75,13.6614566 8.75,14 C8.75,14.3385434 8.8704415,14.6315092 9.11132812,14.8789062 C9.35221475,15.1263033 9.64843574,15.25 10,15.25 Z M18.125,4.078125 C18.6718777,4.22135488 19.121092,4.5143207 19.4726562,4.95703125 C19.8242205,5.3997418 20,5.91405957 20,6.5 C20,7.08594043 19.8242205,7.6002582 19.4726562,8.04296875 C19.121092,8.4856793 18.6718777,8.77864512 18.125,8.921875 L18.125,19.625 C18.125,19.7942717 18.0631517,19.9407546 17.9394531,20.0644531 C17.8157546,20.1881517 17.6692717,20.25 17.5,20.25 C17.3307283,20.25 17.1842454,20.1881517 17.0605469,20.0644531 C16.9368483,19.9407546 16.875,19.7942717 16.875,19.625 L16.875,8.921875 C16.3411432,8.77864512 15.8951841,8.4856793 15.5371094,8.04296875 C15.1790347,7.6002582 15,7.08594043 15,6.5 C15,5.91405957 15.1790347,5.3997418 15.5371094,4.95703125 C15.8951841,4.5143207 16.3411432,4.22135488 16.875,4.078125 L16.875,0.875 C16.875,0.70572832 16.9368483,0.55924541 17.0605469,0.435546875 C17.1842454,0.31184834 17.3307283,0.25 17.5,0.25 C17.6692717,0.25 17.8157546,0.31184834 17.9394531,0.435546875 C18.0631517,0.55924541 18.125,0.70572832 18.125,0.875 L18.125,4.078125 Z M17.5,7.75 C17.8515643,7.75 18.1477853,7.62630332 18.3886719,7.37890625 C18.6295585,7.13150918 18.75,6.83854336 18.75,6.5 C18.75,6.16145664 18.6295585,5.86849082 18.3886719,5.62109375 C18.1477853,5.37369668 17.8515643,5.25 17.5,5.25 C17.1484357,5.25 16.8522147,5.37369668 16.6113281,5.62109375 C16.3704415,5.86849082 16.25,6.16145664 16.25,6.5 C16.25,6.83854336 16.3704415,7.13150918 16.6113281,7.37890625 C16.8522147,7.62630332 17.1484357,7.75 17.5,7.75 Z"/>
</svg>