<svg xmlns="http://www.w3.org/2000/svg" width="14" height="21" viewBox="0 0 14 21">
    <path fill="#008cff" fill-rule="evenodd" d="M7,0.25 C7.96354648,0.25 8.86523018,0.43554502 9.70507812,0.806640625 C10.5449261,1.17773623 11.2740854,1.6790333 11.8925781,2.31054688 C12.5110708,2.94206045 12.9993472,3.68424053 13.3574219,4.53710938 C13.7154966,5.38997822 13.8945312,6.29817227 13.8945312,7.26171875 C13.8945312,8.62891309 13.6341172,9.67056934 13.1132812,10.3867188 C12.5924453,11.1028682 12.0520861,11.7083309 11.4921875,12.203125 C11.0755187,12.5677102 10.7434908,12.8834622 10.4960937,13.1503906 C10.2486967,13.417319 10.125,13.7395814 10.125,14.1171875 L10.125,15.171875 C10.125,15.1848959 10.1217448,15.1979166 10.1152344,15.2109375 C10.1087239,15.2239584 10.1054688,15.2369791 10.1054688,15.25 L10.125,15.25 L10.125,17.0664062 C10.125,18.0169318 9.83854453,18.7851533 9.265625,19.3710938 C8.69270547,19.9570342 7.94401504,20.25 7.01953125,20.25 C6.06900566,20.25 5.30729453,19.9570342 4.734375,19.3710938 C4.16145547,18.7851533 3.875,18.0169318 3.875,17.0664062 L3.875,15.25 L3.89453125,15.25 C3.89453125,15.2369791 3.89127607,15.2239584 3.88476562,15.2109375 C3.87825518,15.1979166 3.875,15.1848959 3.875,15.171875 L3.875,14.1171875 C3.875,13.8697904 3.76432402,13.6321626 3.54296875,13.4042969 C3.32161348,13.1764312 3.02864766,12.8997412 2.6640625,12.5742188 C2.10416387,12.0664037 1.53776328,11.4186237 0.96484375,10.6308594 C0.391924219,9.84309502 0.10546875,8.72005938 0.10546875,7.26171875 C0.10546875,6.29817227 0.284503418,5.38997822 0.642578125,4.53710938 C1.00065283,3.68424053 1.4889292,2.94206045 2.10742188,2.31054688 C2.72591455,1.6790333 3.45507393,1.17773623 4.29492187,0.806640625 C5.13476982,0.43554502 6.03645352,0.25 7,0.25 Z M6.98046875,19 C7.57943008,19 8.04492021,18.8307309 8.37695312,18.4921875 C8.70898604,18.1536441 8.875,17.6783885 8.875,17.0664062 L8.875,16.2070312 C8.65364473,16.2851566 8.38672031,16.3535153 8.07421875,16.4121094 C7.76171719,16.4707034 7.40364785,16.5 7,16.5 C6.58333125,16.5 6.22200674,16.4739586 5.91601562,16.421875 C5.61002451,16.3697914 5.34635527,16.3046879 5.125,16.2265625 L5.125,17.0664062 C5.125,17.6653676 5.28775879,18.1373681 5.61328125,18.4824219 C5.93880371,18.8274757 6.39452832,19 6.98046875,19 Z M10.671875,11.265625 C11.1927109,10.8098936 11.6516907,10.298831 12.0488281,9.73242188 C12.4459655,9.16601279 12.6445312,8.34245332 12.6445312,7.26171875 C12.6445312,6.46744395 12.5013035,5.72200869 12.2148437,5.02539062 C11.928384,4.32877256 11.5312525,3.71679951 11.0234375,3.18945312 C10.5156225,2.66210674 9.91667012,2.24869941 9.2265625,1.94921875 C8.53645488,1.64973809 7.7942748,1.5 7,1.5 C6.2057252,1.5 5.46354512,1.64973809 4.7734375,1.94921875 C4.08332988,2.24869941 3.48437754,2.66210674 2.9765625,3.18945312 C2.46874746,3.71679951 2.07161602,4.32877256 1.78515625,5.02539062 C1.49869648,5.72200869 1.35546875,6.46744395 1.35546875,7.26171875 C1.35546875,8.44662051 1.58007588,9.35481455 2.02929688,9.98632812 C2.47851787,10.6178417 2.97004941,11.1744768 3.50390625,11.65625 C3.8945332,12.0078143 4.26236807,12.3723939 4.60742187,12.75 C4.95247568,13.1276061 5.125,13.5833307 5.125,14.1171875 L5.125,14.9179688 C5.25520898,14.9960941 5.46354023,15.0742184 5.75,15.1523438 C6.03645977,15.2304691 6.44661191,15.2695312 6.98046875,15.2695312 C7.50130469,15.2695312 7.90820166,15.227214 8.20117188,15.1425781 C8.49414209,15.0579423 8.71874922,14.9765629 8.875,14.8984375 L8.875,14.1171875 C8.875,13.4401008 9.06705537,12.8867209 9.45117188,12.4570312 C9.83528838,12.0273416 10.2421854,11.6302102 10.671875,11.265625 Z"/>
</svg>