<svg xmlns="http://www.w3.org/2000/svg" width="20" height="21" viewBox="0 0 20 21">
    <path fill="#008cff" fill-rule="evenodd" d="M13.3984375,7.73046875 L18.7695312,2.3984375 L18.75,5.42578125 C18.75,5.54296934 18.7923173,5.65039014 18.8769531,5.74804688 C18.961589,5.84570361 19.0690098,5.89453125 19.1992188,5.89453125 L19.53125,5.89453125 C19.6484381,5.88151035 19.7526037,5.83919307 19.84375,5.76757813 C19.9348963,5.69596318 19.9869791,5.60156309 20,5.484375 L20,0.97265625 C20,0.959635352 19.9967448,0.953125 19.9902344,0.953125 L19.9804688,0.953125 L20.0195312,0.71875 C20.0195312,0.653645508 20.0097657,0.595052344 19.9902344,0.54296875 C19.970703,0.490885156 19.9414064,0.445312695 19.9023438,0.40625 C19.8632811,0.367187305 19.8144534,0.334635547 19.7558594,0.30859375 C19.6972653,0.282551953 19.6419273,0.26953125 19.5898438,0.26953125 L19.3554688,0.2890625 L19.3359375,0.2890625 L14.8632812,0.26953125 C14.7330723,0.26953125 14.6223963,0.315103711 14.53125,0.40625 C14.4401037,0.497396289 14.3945312,0.608072266 14.3945312,0.73828125 L14.3945312,1.05078125 C14.4075521,1.19401113 14.4661453,1.30794229 14.5703125,1.39257813 C14.6744797,1.47721396 14.791666,1.51953125 14.921875,1.51953125 L17.8710938,1.51953125 L12.5195312,6.8515625 C12.3893223,6.96875059 12.3242188,7.1152335 12.3242188,7.29101563 C12.3242188,7.46679775 12.3893223,7.61328066 12.5195312,7.73046875 C12.6367193,7.86067773 12.7832022,7.92578125 12.9589844,7.92578125 C13.1347665,7.92578125 13.2812494,7.86067773 13.3984375,7.73046875 Z M6.62109375,12.7695312 L1.25,18.1015625 L1.26953125,15.0742188 C1.26953125,14.9570307 1.22721396,14.8496099 1.14257812,14.7519531 C1.05794229,14.6542964 0.950521484,14.6054688 0.8203125,14.6054688 L0.46875,14.6054688 C0.351561914,14.6184896 0.247396289,14.6608069 0.15625,14.7324219 C0.0651037109,14.8040368 0.0130208984,14.8984369 0,15.015625 L0,19.5273438 C0,19.5403646 0.00325517578,19.546875 0.009765625,19.546875 L0.01953125,19.546875 L-0.01953125,19.78125 C-0.01953125,19.8463545 -0.00976572266,19.9049477 0.009765625,19.9570312 C0.0292969727,20.0091148 0.0585935547,20.0546873 0.09765625,20.09375 C0.136718945,20.1328127 0.185546582,20.1653645 0.244140625,20.1914062 C0.302734668,20.217448 0.358072656,20.2304688 0.41015625,20.2304688 L0.64453125,20.2109375 L0.6640625,20.2109375 L5.15625,20.2304688 C5.28645898,20.2304688 5.39713496,20.1848963 5.48828125,20.09375 C5.57942754,20.0026037 5.625,19.8919277 5.625,19.7617188 L5.625,19.4492188 C5.6119791,19.3059889 5.55338594,19.1920577 5.44921875,19.1074219 C5.34505156,19.022786 5.22786523,18.9804688 5.09765625,18.9804688 L2.1484375,18.9804688 L7.5,13.6484375 C7.63020898,13.5312494 7.6953125,13.3847665 7.6953125,13.2089844 C7.6953125,13.0332022 7.63020898,12.8867193 7.5,12.7695312 C7.38281191,12.6393223 7.236329,12.5742188 7.06054688,12.5742188 C6.88476475,12.5742188 6.73828184,12.6393223 6.62109375,12.7695312 Z M20,19.5273438 L20,15.015625 C19.9869791,14.8984369 19.9348963,14.8040368 19.84375,14.7324219 C19.7526037,14.6608069 19.6484381,14.6184896 19.53125,14.6054688 L19.1992188,14.6054688 C19.0690098,14.6054688 18.961589,14.6542964 18.8769531,14.7519531 C18.7923173,14.8496099 18.75,14.9570307 18.75,15.0742188 L18.7695312,18.1015625 L13.3984375,12.7695312 C13.2812494,12.6393223 13.1347665,12.5742188 12.9589844,12.5742188 C12.7832022,12.5742188 12.6367193,12.6393223 12.5195312,12.7695312 C12.3893223,12.8867193 12.3242188,13.0332022 12.3242188,13.2089844 C12.3242188,13.3847665 12.3893223,13.5312494 12.5195312,13.6484375 L17.8710938,18.9804688 L14.921875,18.9804688 C14.791666,18.9804688 14.6744797,19.022786 14.5703125,19.1074219 C14.4661453,19.1920577 14.4075521,19.3059889 14.3945312,19.4492188 L14.3945312,19.7617188 C14.3945312,19.8919277 14.4401037,20.0026037 14.53125,20.09375 C14.6223963,20.1848963 14.7330723,20.2304688 14.8632812,20.2304688 L19.3359375,20.2109375 L19.3554688,20.2109375 L19.5898438,20.2304688 C19.6419273,20.2304688 19.6972653,20.217448 19.7558594,20.1914062 C19.8144534,20.1653645 19.8632811,20.1328127 19.9023438,20.09375 C19.9414064,20.0546873 19.970703,20.0091148 19.9902344,19.9570312 C20.0097657,19.9049477 20.0195312,19.8463545 20.0195312,19.78125 L19.9804688,19.546875 L19.9902344,19.546875 C19.9967448,19.546875 20,19.5403646 20,19.5273438 Z M2.1484375,1.51953125 L5.09765625,1.51953125 C5.22786523,1.51953125 5.34505156,1.47721396 5.44921875,1.39257813 C5.55338594,1.30794229 5.6119791,1.19401113 5.625,1.05078125 L5.625,0.73828125 C5.625,0.608072266 5.57942754,0.497396289 5.48828125,0.40625 C5.39713496,0.315103711 5.28645898,0.26953125 5.15625,0.26953125 L0.6640625,0.2890625 L0.64453125,0.2890625 L0.41015625,0.26953125 C0.358072656,0.26953125 0.302734668,0.282551953 0.244140625,0.30859375 C0.185546582,0.334635547 0.136718945,0.367187305 0.09765625,0.40625 C0.0585935547,0.445312695 0.0292969727,0.490885156 0.009765625,0.54296875 C-0.00976572266,0.595052344 -0.01953125,0.653645508 -0.01953125,0.71875 L0.01953125,0.953125 L0.009765625,0.953125 C0.00325517578,0.953125 0,0.959635352 0,0.97265625 L0,5.484375 C0.0130208984,5.60156309 0.0651037109,5.69596318 0.15625,5.76757813 C0.247396289,5.83919307 0.351561914,5.88151035 0.46875,5.89453125 L0.8203125,5.89453125 C0.950521484,5.89453125 1.05794229,5.84570361 1.14257812,5.74804688 C1.22721396,5.65039014 1.26953125,5.54296934 1.26953125,5.42578125 L1.25,2.3984375 L6.62109375,7.73046875 C6.73828184,7.86067773 6.88476475,7.92578125 7.06054688,7.92578125 C7.236329,7.92578125 7.38281191,7.86067773 7.5,7.73046875 C7.63020898,7.61328066 7.6953125,7.46679775 7.6953125,7.29101563 C7.6953125,7.1152335 7.63020898,6.96875059 7.5,6.8515625 L2.1484375,1.51953125 Z"/>
</svg>