<svg xmlns="http://www.w3.org/2000/svg" width="20" height="21" viewBox="0 0 20 21">
    <path fill="#008cff" fill-rule="evenodd" d="M0.4296875,6.1484375 C0.325520312,6.09635391 0.244140918,6.01822969 0.185546875,5.9140625 C0.126952832,5.80989531 0.09765625,5.69921934 0.09765625,5.58203125 C0.09765625,5.46484316 0.130208008,5.35742236 0.1953125,5.25976562 C0.260416992,5.16210889 0.345051562,5.08723984 0.44921875,5.03515625 L9.82421875,0.328125 C9.91536504,0.276041406 10.0097651,0.25 10.1074219,0.25 C10.2050786,0.25 10.2994787,0.276041406 10.390625,0.328125 L19.6679688,5.03515625 C19.7721359,5.08723984 19.8535153,5.16210889 19.9121094,5.25976562 C19.9707034,5.35742236 20,5.46484316 20,5.58203125 C20,5.69921934 19.9707034,5.80989531 19.9121094,5.9140625 C19.8535153,6.01822969 19.7786463,6.09635391 19.6875,6.1484375 L10.2929688,11.2070312 C10.2539061,11.233073 10.2083336,11.2493489 10.15625,11.2558594 C10.1041664,11.2623698 10.0520836,11.265625 10,11.265625 C9.94791641,11.265625 9.89908877,11.2591146 9.85351562,11.2460938 C9.80794248,11.2330729 9.75911484,11.2200521 9.70703125,11.2070312 L0.4296875,6.1484375 Z M10.0976562,1.578125 L2.0703125,5.62109375 L10,9.9375 L18.0273438,5.62109375 L10.0976562,1.578125 Z M19.5507812,9.625 C19.6549484,9.67708359 19.739583,9.75520781 19.8046875,9.859375 C19.869792,9.96354219 19.9023438,10.0677078 19.9023438,10.171875 C19.9023438,10.2890631 19.8730472,10.3997391 19.8144531,10.5039062 C19.7558591,10.6080734 19.6744797,10.6861977 19.5703125,10.7382812 L10.1953125,15.796875 C10.1432289,15.8229168 10.0944013,15.8424479 10.0488281,15.8554688 C10.003255,15.8684896 9.95442734,15.875 9.90234375,15.875 C9.85026016,15.875 9.79817734,15.8684896 9.74609375,15.8554688 C9.69401016,15.8424479 9.64192734,15.8229168 9.58984375,15.796875 L0.3125,10.7382812 C0.221353711,10.6861977 0.146484668,10.6080734 0.087890625,10.5039062 C0.029296582,10.3997391 0,10.2890631 0,10.171875 C0,10.0546869 0.029296582,9.94726611 0.087890625,9.84960938 C0.146484668,9.75195264 0.227864062,9.67708359 0.33203125,9.625 L2.3046875,8.6484375 L3.6328125,9.37109375 L1.97265625,10.2109375 L9.90234375,14.5273438 L17.9296875,10.2109375 L16.3671875,9.41015625 L17.6953125,8.6875 L19.5507812,9.625 Z M19.5507812,14 C19.6549484,14.0520836 19.739583,14.1302078 19.8046875,14.234375 C19.869792,14.3385422 19.9023438,14.4427078 19.9023438,14.546875 C19.9023438,14.6640631 19.8730472,14.7747391 19.8144531,14.8789062 C19.7558591,14.9830734 19.6744797,15.0611977 19.5703125,15.1132812 L10.1953125,20.171875 C10.1432289,20.1979168 10.0944013,20.2174479 10.0488281,20.2304688 C10.003255,20.2434896 9.95442734,20.25 9.90234375,20.25 C9.85026016,20.25 9.79817734,20.2434896 9.74609375,20.2304688 C9.69401016,20.2174479 9.64192734,20.1979168 9.58984375,20.171875 L0.3125,15.1132812 C0.221353711,15.0611977 0.146484668,14.9830734 0.087890625,14.8789062 C0.029296582,14.7747391 0,14.6640631 0,14.546875 C0,14.4296869 0.029296582,14.3222661 0.087890625,14.2246094 C0.146484668,14.1269526 0.227864062,14.0520836 0.33203125,14 L2.1875,13.1601562 L3.515625,13.8828125 L1.97265625,14.5859375 L9.90234375,18.9023438 L17.9296875,14.5859375 L16.4648438,13.8632812 L17.7929688,13.140625 L19.5507812,14 Z"/>
</svg>