<svg xmlns="http://www.w3.org/2000/svg" width="60" height="60" viewBox="0 0 60 60">
  <path fill="#002747" fill-rule="evenodd" d="M45.78125,30.03125 C45.9687509,30.2395844 46.0572917,30.4791653 46.046875,30.75 C46.0364583,31.0208347 45.9375009,31.2604156 45.75,31.46875 C45.6458328,31.5520838 45.5364589,31.6197914 45.421875,31.671875 C45.3072911,31.7239586 45.1875006,31.75 45.0625,31.75 C44.9166659,31.75 44.7812506,31.7239586 44.65625,31.671875 C44.5312494,31.6197914 44.4270838,31.5416672 44.34375,31.4375 L43,30.03125 L43,45 C43,45.2708347 42.9010427,45.5052073 42.703125,45.703125 C42.5052073,45.9010427 42.2708347,46 42,46 L35,46 C34.7291653,46 34.4947927,45.9010427 34.296875,45.703125 C34.0989573,45.5052073 34,45.2708347 34,45 L34,35 L26.03125,35 L26,45 C26,45.2708347 25.9010427,45.5052073 25.703125,45.703125 C25.5052073,45.9010427 25.2708347,46 25,46 L18.03125,46 C17.7395819,46 17.5000009,45.9010427 17.3125,45.703125 C17.1249991,45.5052073 17.03125,45.2708347 17.03125,45 L17.03125,30.03125 L15.6875,31.4375 C15.4791656,31.6250009 15.2395847,31.7239583 14.96875,31.734375 C14.6979153,31.7447917 14.4583344,31.6562509 14.25,31.46875 C14.0624991,31.2604156 13.9635417,31.0208347 13.953125,30.75 C13.9427083,30.4791653 14.0312491,30.2395844 14.21875,30.03125 L29.3125,14.3125 C29.4166672,14.2083328 29.5312494,14.1302086 29.65625,14.078125 C29.7812506,14.0260414 29.9062494,14 30.03125,14 C30.1770841,14 30.3124994,14.0260414 30.4375,14.078125 C30.5625006,14.1302086 30.6666663,14.2083328 30.75,14.3125 L45.78125,30.03125 Z M41,28.09375 C41,28.0520831 41.0104166,28.0104169 41.03125,27.96875 L30.03125,16.46875 L19,27.96875 C19,28.0104169 19.0052083,28.0520831 19.015625,28.09375 C19.0260417,28.1354169 19.03125,28.1770831 19.03125,28.21875 L19.03125,44 L24,44 L24.03125,34 C24.03125,33.7291653 24.1302073,33.4947927 24.328125,33.296875 C24.5260427,33.0989573 24.7604153,33 25.03125,33 L35,33 C35.2708347,33 35.5052073,33.0989573 35.703125,33.296875 C35.9010427,33.4947927 36,33.7291653 36,34 L36,44 L41,44 L41,28.09375 Z"/>
</svg>
