<svg xmlns="http://www.w3.org/2000/svg" width="60" height="60" viewBox="0 0 60 60">
  <path fill="#000000" fill-rule="evenodd" d="M38.1388672,22.4360352 C39.2990292,22.5649421 40.3893504,22.8872045 41.4098633,23.402832 C42.4303762,23.9184596 43.3219688,24.5790975 44.084668,25.3847656 C44.8473671,26.1904337 45.4489236,27.1142526 45.8893555,28.15625 C46.3297874,29.1982474 46.55,30.3100527 46.55,31.4916992 C46.55,32.6088923 46.3673846,33.7260686 46.0021484,34.8432617 C45.6369122,35.9604548 45.1051793,36.9648393 44.4069336,37.8564453 C43.7086879,38.7480513 42.8546925,39.4838838 41.8449219,40.0639648 C40.8351512,40.6440459 39.6857486,40.9555662 38.3966797,40.9985352 C38.1173814,40.9985352 37.8756846,40.8964854 37.671582,40.6923828 C37.4674794,40.4882802 37.3654297,40.2465834 37.3654297,39.9672852 C37.3654297,39.6879869 37.4674794,39.4462901 37.671582,39.2421875 C37.8756846,39.0380849 38.1173814,38.9360352 38.3966797,38.9360352 L38.6867187,38.9360352 C39.5675825,38.9360352 40.3678675,38.7158225 41.0875977,38.2753906 C41.8073278,37.8349587 42.4249974,37.2548864 42.940625,36.5351563 C43.4562526,35.8154261 43.8537095,35.0151411 44.1330078,34.1342773 C44.4123061,33.2534136 44.5519531,32.372563 44.5519531,31.4916992 C44.5519531,30.5248975 44.3585957,29.6171917 43.971875,28.7685547 C43.5851543,27.9199176 43.0587924,27.1787141 42.3927734,26.5449219 C41.7267545,25.9111296 40.9640668,25.4062519 40.1046875,25.0302734 C39.2453082,24.654295 38.3322314,24.4663086 37.3654297,24.4663086 L36.6242187,24.434082 L36.3986328,23.7250977 C35.8615208,22.0063391 34.9967833,20.6689501 33.8043945,19.7128906 C32.6120058,18.7568312 30.9953227,18.2788086 28.9542969,18.2788086 C27.6652279,18.2788086 26.5050833,18.4990212 25.4738281,18.9394531 C24.442573,19.379885 23.5563514,19.9921836 22.8151367,20.7763672 C22.0739221,21.5605508 21.5045918,22.4951118 21.1071289,23.5800781 C20.709666,24.6650445 20.5109375,25.8305602 20.5109375,27.0766602 L20.5431641,27.0766602 L20.6076172,28.043457 L19.6730469,28.2045898 C18.5343693,28.3979502 17.5675821,29.0102488 16.7726562,30.0415039 C15.9777304,31.0727591 15.5802734,32.2329037 15.5802734,33.5219727 C15.5802734,34.9829175 16.0690381,36.2504829 17.046582,37.324707 C18.024126,38.3989312 19.1788996,38.9360352 20.5109375,38.9360352 L21.4132812,38.9360352 C21.714064,38.9360352 21.9611318,39.0380849 22.1544922,39.2421875 C22.3478525,39.4462901 22.4445312,39.6879869 22.4445312,39.9672852 C22.4445312,40.2465834 22.3478525,40.4882802 22.1544922,40.6923828 C21.9611318,40.8964854 21.714064,40.9985352 21.4132812,40.9985352 L20.5109375,40.9985352 C19.5656203,40.9985352 18.6740276,40.7998067 17.8361328,40.4023438 C16.998238,40.0048808 16.2624055,39.4624058 15.6286133,38.7749023 C14.994821,38.0873989 14.4899433,37.292485 14.1139648,36.3901367 C13.7379864,35.4877885 13.55,34.5317433 13.55,33.5219727 C13.55,31.8676675 14.0119094,30.3745184 14.9357422,29.0424805 C15.8595749,27.7104426 17.0412037,26.8188499 18.4806641,26.3676758 C18.566602,24.9282155 18.8834934,23.5908265 19.4313477,22.3554688 C19.979202,21.120111 20.7096634,20.045903 21.6227539,19.1328125 C22.5358444,18.219722 23.6100524,17.5053737 24.8454102,16.9897461 C26.0807679,16.4741185 27.4503831,16.2163086 28.9542969,16.2163086 C30.1144589,16.2163086 31.1779249,16.3613267 32.1447266,16.6513672 C33.1115283,16.9414077 33.9816368,17.3549778 34.7550781,17.8920898 C35.5285195,18.4292019 36.1945285,19.0844688 36.753125,19.8579102 C37.3117215,20.6313515 37.773631,21.4907179 38.1388672,22.4360352 Z M34.3683594,39.0327148 L34.6261719,39.2583008 C34.7765633,39.4086922 34.8517578,39.5698234 34.8517578,39.7416992 C34.8517578,39.9135751 34.7765633,40.0747063 34.6261719,40.2250977 L30.8234375,44.3823242 L30.8234375,44.4145508 L30.565625,44.6723633 C30.4796871,44.7583012 30.3937504,44.8173827 30.3078125,44.8496094 C30.2218746,44.8818361 30.1251958,44.8979492 30.0177734,44.8979492 C29.9318355,44.8979492 29.8405278,44.8818361 29.7438477,44.8496094 C29.6471675,44.8173827 29.5666019,44.7583012 29.5021484,44.6723633 L29.2443359,44.4145508 L29.2443359,44.3823242 L25.5060547,40.2895508 C25.3556633,40.1391594 25.2804688,39.956544 25.2804688,39.7416992 C25.2804688,39.5268544 25.3556633,39.344239 25.5060547,39.1938477 L25.7638672,39.0327148 C25.9142586,38.8823235 26.0915029,38.817871 26.2956055,38.8393555 C26.4997081,38.86084 26.6769524,38.9467766 26.8273438,39.097168 L29.01875,41.5463867 L29.01875,31.1694336 C29.01875,30.8901353 29.1154287,30.6484385 29.3087891,30.4443359 C29.5021494,30.2402334 29.7492172,30.1381836 30.05,30.1381836 C30.3292983,30.1381836 30.5709951,30.2402334 30.7750977,30.4443359 C30.9792002,30.6484385 31.08125,30.8901353 31.08125,31.1694336 L31.08125,41.5463867 L33.3371094,39.0327148 C33.4875008,38.8823235 33.6647451,38.8071289 33.8688477,38.8071289 C34.0729502,38.8071289 34.2394525,38.8823235 34.3683594,39.0327148 Z"/>
</svg>
