<?xml version="1.0" encoding="iso-8859-1"?>
<!-- Generator: Adobe Illustrator 19.2.0, SVG Export Plug-In . SVG Version: 6.00 Build 0)  -->
<svg version="1.1" id="Layer_1" xmlns="http://www.w3.org/2000/svg" xmlns:xlink="http://www.w3.org/1999/xlink" x="0px" y="0px"
	 viewBox="0 0 130 130" enable-background="new 0 0 130 130" xml:space="preserve">
<symbol  id="Logo" viewBox="-50 -50.242 100 100.484">
	<g>
		<defs>
			<circle id="SVGID_3_" cx="0" cy="0.242" r="50"/>
		</defs>
		<use xlink:href="#SVGID_3_"  overflow="visible" fill="#003B6E"/>
		<clipPath id="SVGID_54_">
			<use xlink:href="#SVGID_3_"  overflow="visible"/>
		</clipPath>
		<linearGradient id="SVGID_55_" gradientUnits="userSpaceOnUse" x1="-17.5902" y1="-12.2683" x2="36.9972" y2="-45.4463">
			<stop  offset="0" style="stop-color:#35AFFF"/>
			<stop  offset="1" style="stop-color:#00F8FF"/>
		</linearGradient>
		<path clip-path="url(#SVGID_54_)" fill="url(#SVGID_55_)" d="M-23.082,13.915C-19.97,7.669-18.031-1.8-18.031-2.783
			c0-0.983,10.972-4.455,10.972-4.455c1.533-0.623,1.433-1.141-0.225-1.158l-7.75-0.08c-1.657-0.017-1.803-0.633-0.324-1.375
			l6.25-3.14c1.478-0.743,1.331-1.248-0.306-1.13l-9.635,0.695c-4.263-2.686,0.524-11.884-16.618-22.175
			c9.155-9.05,21.736-14.641,35.626-14.641c17.239,0,32.454,8.61,41.609,21.756C6.08,19.217-32.078,31.967-23.082,13.915z"/>
	</g>
</symbol>
<use xlink:href="#Logo"  width="100" height="100.484" x="-50" y="-50.242" transform="matrix(1 0 0 -1 65 65.4835)" overflow="visible"/>
</svg>
