<svg xmlns="http://www.w3.org/2000/svg" width="60" height="60" viewBox="0 0 60 60">
  <path fill="#002747" fill-rule="evenodd" d="M39,26 C40.1041722,26 41.0468711,26.3906211 41.828125,27.171875 C42.6093789,27.9531289 43,28.8958278 43,30 L43,42 C43,43.1041722 42.6093789,44.0468711 41.828125,44.828125 C41.0468711,45.6093789 40.1041722,46 39,46 L21,46 C19.8958278,46 18.9531289,45.6093789 18.171875,44.828125 C17.3906211,44.0468711 17,43.1041722 17,42 L17,30 C17,28.8958278 17.3906211,27.9531289 18.171875,27.171875 C18.9531289,26.3906211 19.8958278,26 21,26 L22,26 L22,22.1875 C22,21.0624944 22.1927064,20.000005 22.578125,19 C22.9635436,17.999995 23.5052048,17.130212 24.203125,16.390625 C24.9010452,15.651038 25.7395784,15.0677105 26.71875,14.640625 C27.6979216,14.2135395 28.7812441,14 29.96875,14 C31.1354225,14 32.2135367,14.2135395 33.203125,14.640625 C34.1927133,15.0677105 35.0416631,15.6458297 35.75,16.375 C36.4583369,17.1041703 37.0104147,17.968745 37.40625,18.96875 C37.8020853,19.968755 38,21.0416609 38,22.1875 L38,26 L39,26 Z M24,22.1875 L24,26 L36,26 L36,22.1875 C36,20.4583247 35.4427139,18.9947977 34.328125,17.796875 C33.2135361,16.5989523 31.7604256,16 29.96875,16 C28.1562409,16 26.7083387,16.6041606 25.625,17.8125 C24.5416613,19.0208394 24,20.4791581 24,22.1875 Z M41,42 L41,30 C41,29.4583306 40.8020853,28.9895853 40.40625,28.59375 C40.0104147,28.1979147 39.5416694,28 39,28 L21,28 C20.4583306,28 19.9895853,28.1979147 19.59375,28.59375 C19.1979147,28.9895853 19,29.4583306 19,30 L19,42 C19,42.5416694 19.1979147,43.0104147 19.59375,43.40625 C19.9895853,43.8020853 20.4583306,44 21,44 L39,44 C39.5416694,44 40.0104147,43.8020853 40.40625,43.40625 C40.8020853,43.0104147 41,42.5416694 41,42 Z M30,32 C30.5625028,32 31.0364564,32.1927064 31.421875,32.578125 C31.8072936,32.9635436 32,33.4374972 32,34 C32,34.3750019 31.9062509,34.7135402 31.71875,35.015625 C31.5312491,35.3177098 31.2916681,35.5520825 31,35.71875 L31,39 C31,39.2708347 30.9010427,39.5052073 30.703125,39.703125 C30.5052073,39.9010427 30.2708347,40 30,40 C29.7291653,40 29.4947927,39.9010427 29.296875,39.703125 C29.0989573,39.5052073 29,39.2708347 29,39 L29,35.71875 C28.7083319,35.5520825 28.4687509,35.3177098 28.28125,35.015625 C28.0937491,34.7135402 28,34.3750019 28,34 C28,33.4374972 28.1927064,32.9635436 28.578125,32.578125 C28.9635436,32.1927064 29.4374972,32 30,32 Z"/>
</svg>
