<svg id="Layer_1" data-name="Layer 1" xmlns="http://www.w3.org/2000/svg" xmlns:xlink="http://www.w3.org/1999/xlink" width="100" height="100.48" viewBox="0 0 100 100.48">
  <defs>
    <clipPath id="clip-path">
      <path d="M27.12,36a65.27,65.27,0,0,1,5,16.65c0,1,10.94,4.44,10.94,4.44,1.53,0.62,1.43,1.14-.22,1.15l-7.73.08c-1.65,0-1.8.63-.32,1.37l6.23,3.13c1.47,0.74,1.33,1.24-.3,1.13l-9.61-.69c-4.25,2.68.52,11.85-16.57,22.11a50.51,50.51,0,0,0,77-7.09C56.19,30.68,18.15,18,27.12,36Z" style="fill: none"/>
    </clipPath>
  </defs>
  <title>plan-blacktip</title>
  <g id="Logo">
    <g>
      <circle id="SVGID" cx="50" cy="50.24" r="50" style="fill: #d7dde0"/>
      <g>
        <path d="M27.12,36a65.27,65.27,0,0,1,5,16.65c0,1,10.94,4.44,10.94,4.44,1.53,0.62,1.43,1.14-.22,1.15l-7.73.08c-1.65,0-1.8.63-.32,1.37l6.23,3.13c1.47,0.74,1.33,1.24-.3,1.13l-9.61-.69c-4.25,2.68.52,11.85-16.57,22.11a50.51,50.51,0,0,0,77-7.09C56.19,30.68,18.15,18,27.12,36Z" style="fill: #a8acad"/>
        <g style="clip-path: url(#clip-path)">
          <path d="M8,29S28.81,47.11,63.81,42.51c32.37-4.26-28.76-30.59-28.76-30.59L6.68,24.75Z"/>
        </g>
      </g>
    </g>
  </g>
</svg>
