<svg xmlns="http://www.w3.org/2000/svg" width="60" height="60" viewBox="0 0 60 60">
  <path fill="#002747" fill-rule="evenodd" d="M35.4375,25.96875 L44.03125,17.4375 L44,22.28125 C44,22.4687509 44.0677077,22.6406242 44.203125,22.796875 C44.3385423,22.9531258 44.5104156,23.03125 44.71875,23.03125 L45.25,23.03125 C45.4375009,23.0104166 45.6041659,22.9427089 45.75,22.828125 C45.8958341,22.7135411 45.9791666,22.5625009 46,22.375 L46,15.15625 C46,15.1354166 45.9947917,15.125 45.984375,15.125 L45.96875,15.125 L46.03125,14.75 C46.03125,14.6458328 46.0156252,14.5520838 45.984375,14.46875 C45.9531248,14.3854162 45.9062503,14.3125003 45.84375,14.25 C45.7812497,14.1874997 45.7031255,14.1354169 45.609375,14.09375 C45.5156245,14.0520831 45.4270838,14.03125 45.34375,14.03125 L44.96875,14.0625 L44.9375,14.0625 L37.78125,14.03125 C37.5729156,14.03125 37.3958341,14.1041659 37.25,14.25 C37.1041659,14.3958341 37.03125,14.5729156 37.03125,14.78125 L37.03125,15.28125 C37.0520834,15.5104178 37.1458325,15.6927077 37.3125,15.828125 C37.4791675,15.9635423 37.6666656,16.03125 37.875,16.03125 L42.59375,16.03125 L34.03125,24.5625 C33.8229156,24.7500009 33.71875,24.9843736 33.71875,25.265625 C33.71875,25.5468764 33.8229156,25.7812491 34.03125,25.96875 C34.2187509,26.1770844 34.4531236,26.28125 34.734375,26.28125 C35.0156264,26.28125 35.2499991,26.1770844 35.4375,25.96875 Z M24.59375,34.03125 L16,42.5625 L16.03125,37.71875 C16.03125,37.5312491 15.9635423,37.3593758 15.828125,37.203125 C15.6927077,37.0468742 15.5208344,36.96875 15.3125,36.96875 L14.75,36.96875 C14.5624991,36.9895834 14.3958341,37.0572911 14.25,37.171875 C14.1041659,37.2864589 14.0208334,37.4374991 14,37.625 L14,44.84375 C14,44.8645834 14.0052083,44.875 14.015625,44.875 L14.03125,44.875 L13.96875,45.25 C13.96875,45.3541672 13.9843748,45.4479162 14.015625,45.53125 C14.0468752,45.6145838 14.0937497,45.6874997 14.15625,45.75 C14.2187503,45.8125003 14.2968745,45.8645831 14.390625,45.90625 C14.4843755,45.9479169 14.5729163,45.96875 14.65625,45.96875 L15.03125,45.9375 L15.0625,45.9375 L22.25,45.96875 C22.4583344,45.96875 22.6354159,45.8958341 22.78125,45.75 C22.9270841,45.6041659 23,45.4270844 23,45.21875 L23,44.71875 C22.9791666,44.4895822 22.8854175,44.3072923 22.71875,44.171875 C22.5520825,44.0364577 22.3645844,43.96875 22.15625,43.96875 L17.4375,43.96875 L26,35.4375 C26.2083344,35.2499991 26.3125,35.0156264 26.3125,34.734375 C26.3125,34.4531236 26.2083344,34.2187509 26,34.03125 C25.8124991,33.8229156 25.5781264,33.71875 25.296875,33.71875 C25.0156236,33.71875 24.7812509,33.8229156 24.59375,34.03125 Z M46,44.84375 L46,37.625 C45.9791666,37.4374991 45.8958341,37.2864589 45.75,37.171875 C45.6041659,37.0572911 45.4375009,36.9895834 45.25,36.96875 L44.71875,36.96875 C44.5104156,36.96875 44.3385423,37.0468742 44.203125,37.203125 C44.0677077,37.3593758 44,37.5312491 44,37.71875 L44.03125,42.5625 L35.4375,34.03125 C35.2499991,33.8229156 35.0156264,33.71875 34.734375,33.71875 C34.4531236,33.71875 34.2187509,33.8229156 34.03125,34.03125 C33.8229156,34.2187509 33.71875,34.4531236 33.71875,34.734375 C33.71875,35.0156264 33.8229156,35.2499991 34.03125,35.4375 L42.59375,43.96875 L37.875,43.96875 C37.6666656,43.96875 37.4791675,44.0364577 37.3125,44.171875 C37.1458325,44.3072923 37.0520834,44.4895822 37.03125,44.71875 L37.03125,45.21875 C37.03125,45.4270844 37.1041659,45.6041659 37.25,45.75 C37.3958341,45.8958341 37.5729156,45.96875 37.78125,45.96875 L44.9375,45.9375 L44.96875,45.9375 L45.34375,45.96875 C45.4270838,45.96875 45.5156245,45.9479169 45.609375,45.90625 C45.7031255,45.8645831 45.7812497,45.8125003 45.84375,45.75 C45.9062503,45.6874997 45.9531248,45.6145838 45.984375,45.53125 C46.0156252,45.4479162 46.03125,45.3541672 46.03125,45.25 L45.96875,44.875 L45.984375,44.875 C45.9947917,44.875 46,44.8645834 46,44.84375 Z M17.4375,16.03125 L22.15625,16.03125 C22.3645844,16.03125 22.5520825,15.9635423 22.71875,15.828125 C22.8854175,15.6927077 22.9791666,15.5104178 23,15.28125 L23,14.78125 C23,14.5729156 22.9270841,14.3958341 22.78125,14.25 C22.6354159,14.1041659 22.4583344,14.03125 22.25,14.03125 L15.0625,14.0625 L15.03125,14.0625 L14.65625,14.03125 C14.5729163,14.03125 14.4843755,14.0520831 14.390625,14.09375 C14.2968745,14.1354169 14.2187503,14.1874997 14.15625,14.25 C14.0937497,14.3125003 14.0468752,14.3854162 14.015625,14.46875 C13.9843748,14.5520838 13.96875,14.6458328 13.96875,14.75 L14.03125,15.125 L14.015625,15.125 C14.0052083,15.125 14,15.1354166 14,15.15625 L14,22.375 C14.0208334,22.5625009 14.1041659,22.7135411 14.25,22.828125 C14.3958341,22.9427089 14.5624991,23.0104166 14.75,23.03125 L15.3125,23.03125 C15.5208344,23.03125 15.6927077,22.9531258 15.828125,22.796875 C15.9635423,22.6406242 16.03125,22.4687509 16.03125,22.28125 L16,17.4375 L24.59375,25.96875 C24.7812509,26.1770844 25.0156236,26.28125 25.296875,26.28125 C25.5781264,26.28125 25.8124991,26.1770844 26,25.96875 C26.2083344,25.7812491 26.3125,25.5468764 26.3125,25.265625 C26.3125,24.9843736 26.2083344,24.7500009 26,24.5625 L17.4375,16.03125 Z"/>
</svg>
